<mxfile host="app.diagrams.net" modified="2024-04-25T05:14:45.667Z" agent="Mozilla/5.0 (Windows NT 10.0; Win64; x64) AppleWebKit/537.36 (KHTML, like Gecko) Chrome/124.0.0.0 Safari/537.36" version="24.3.0" etag="NXrPzBnZxFIOc0urxCv_" type="github">
  <diagram name="Page-1" id="TS7_Ko_DgKG1e7pylsXw">
    <mxGraphModel>
      <root>
        <mxCell id="0" />
        <mxCell id="1" parent="0" />
      </root>
    </mxGraphModel>
  </diagram>
</mxfile>
